<svg width="54" height="54" viewBox="0 0 54 54" fill="none" xmlns="http://www.w3.org/2000/svg">
<path d="M12.6 7.20003C12.1394 7.20003 11.6783 7.37547 11.3273 7.72737L7.72731 11.3274C7.02351 12.0312 7.02351 13.1707 7.72731 13.8727L20.8547 27L7.72731 40.1274C7.02351 40.8312 7.02351 41.9707 7.72731 42.6727L11.3273 46.2727C12.0311 46.9765 13.1706 46.9765 13.8726 46.2727L27 33.1453L40.1273 46.2727C40.8293 46.9765 41.9706 46.9765 42.6726 46.2727L46.2726 42.6727C46.9764 41.9689 46.9764 40.8294 46.2726 40.1274L33.1453 27L46.2726 13.8727C46.9764 13.1707 46.9764 12.0294 46.2726 11.3274L42.6726 7.72737C41.9688 7.02357 40.8293 7.02357 40.1273 7.72737L27 20.8547L13.8726 7.72737C13.5207 7.37547 13.0605 7.20003 12.6 7.20003Z" fill="black"/>
</svg>
