<svg width="180" height="180" viewBox="0 0 180 180" fill="none" xmlns="http://www.w3.org/2000/svg">
<path d="M108 114V102C110.7 100.662 118.422 91.47 119.232 84.288C121.356 84.126 124.692 82.176 125.676 74.478C126.204 70.344 124.104 68.022 122.832 67.29C122.832 67.29 126 61.272 126 54.006C126 39.438 120.282 27.006 108 27.006C108 27.006 103.734 18.006 90 18.006C64.548 18.006 54 34.332 54 54.006C54 60.63 57.168 67.29 57.168 67.29C55.896 68.022 53.796 70.35 54.324 74.478C55.308 82.176 58.644 84.126 60.768 84.288C61.578 91.47 69.3 100.662 72 102V114C66 132 18 120 18 162H162C162 120 114 132 108 114Z" fill="black"/>
</svg>
